<?xml version="1.0" encoding="UTF-8"?>
<svg id="Camada_2" data-name="Camada 2" xmlns="http://www.w3.org/2000/svg" xmlns:xlink="http://www.w3.org/1999/xlink" viewBox="0 0 87 87">
  <defs>
    <style>
      .cls-1 {
        fill: #fff;
        stroke: url(#Gradiente_sem_nome_6);
        stroke-miterlimit: 10;
        stroke-width: 2px;
      }

      .cls-2 {
        fill: url(#Gradiente_sem_nome_3);
        stroke-width: 0px;
      }
    </style>
    <linearGradient id="Gradiente_sem_nome_6" data-name="Gradiente sem nome 6" x1="0" y1="43.5" x2="87" y2="43.5" gradientUnits="userSpaceOnUse">
      <stop offset="0" stop-color="#e69732"/>
      <stop offset=".13" stop-color="#e19533"/>
      <stop offset=".27" stop-color="#d59037"/>
      <stop offset=".4" stop-color="#c1893f"/>
      <stop offset=".54" stop-color="#a57e49"/>
      <stop offset=".68" stop-color="#807057"/>
      <stop offset=".81" stop-color="#536067"/>
      <stop offset=".95" stop-color="#1f4c7a"/>
      <stop offset="1" stop-color="#094483"/>
    </linearGradient>
    <linearGradient id="Gradiente_sem_nome_3" data-name="Gradiente sem nome 3" x1="16.44" y1="43.52" x2="70.75" y2="43.52" gradientUnits="userSpaceOnUse">
      <stop offset="0" stop-color="#e69732"/>
      <stop offset=".08" stop-color="#c38a3e"/>
      <stop offset=".2" stop-color="#927750"/>
      <stop offset=".33" stop-color="#686760"/>
      <stop offset=".46" stop-color="#455a6c"/>
      <stop offset=".59" stop-color="#2b5076"/>
      <stop offset=".72" stop-color="#18497d"/>
      <stop offset=".86" stop-color="#0c4581"/>
      <stop offset="1" stop-color="#094483"/>
    </linearGradient>
  </defs>
  <g id="Camada_1-2" data-name="Camada 1">
    <g>
      <circle id="Elipse_21" data-name="Elipse 21" class="cls-1" cx="43.5" cy="43.5" r="42.5"/>
      <path id="Subtração_61" data-name="Subtração 61" class="cls-2" d="M36.47,40.37c1.29-5.45-2.08-10.92-7.54-12.22-5.45-1.29-10.92,2.08-12.22,7.54-1.29,5.45,2.08,10.92,7.54,12.22s10.92-2.08,12.22-7.54ZM47.32,34.31c1.29-5.45-2.08-10.92-7.54-12.22-5.45-1.29-10.92,2.08-12.22,7.54-1.29,5.45,2.08,10.92,7.54,12.22,5.45,1.29,10.92-2.08,12.22-7.54ZM61.97,35.98c1.29-5.45-2.08-10.92-7.54-12.22-5.45-1.29-10.92,2.08-12.22,7.54-1.29,5.45,2.08,10.92,7.54,12.22,5.45,1.29,10.92-2.08,12.22-7.54ZM59.63,45.85c1.29-5.45-2.08-10.92-7.54-12.22-5.45-1.29-10.92,2.08-12.22,7.54-1.29,5.45,2.08,10.92,7.54,12.22s10.92-2.08,12.22-7.54ZM46.23,48.8c1.29-5.45-2.08-10.92-7.54-12.22-5.45-1.29-10.92,2.08-12.22,7.54-1.29,5.45,2.08,10.92,7.54,12.22,5.45,1.29,10.92-2.08,12.22-7.54ZM70.48,44.11c1.29-5.45-2.08-10.92-7.54-12.22-5.45-1.29-10.92,2.08-12.22,7.54s2.08,10.92,7.54,12.22c5.45,1.29,10.92-2.08,12.22-7.54ZM47.96,61.29c0-1.62-1.53-2.94-3.42-2.94s-3.42,1.31-3.42,2.94,1.53,2.94,3.42,2.94,3.42-1.31,3.42-2.94ZM55.3,63.26c0-1.09-1-1.97-2.24-1.97s-2.24.88-2.24,1.97,1,1.97,2.24,1.97,2.24-.88,2.24-1.97Z"/>
    </g>
  </g>
</svg>