<?xml version="1.0" encoding="UTF-8"?>
<svg id="Camada_2" data-name="Camada 2" xmlns="http://www.w3.org/2000/svg" xmlns:xlink="http://www.w3.org/1999/xlink" viewBox="0 0 87 87">
  <defs>
    <style>
      .cls-1 {
        fill: #fff;
        stroke: url(#Gradiente_sem_nome_6);
        stroke-miterlimit: 10;
        stroke-width: 2px;
      }

      .cls-2 {
        fill: url(#Gradiente_sem_nome_3);
        stroke-width: 0px;
      }
    </style>
    <linearGradient id="Gradiente_sem_nome_6" data-name="Gradiente sem nome 6" x1="0" y1="43.5" x2="87" y2="43.5" gradientUnits="userSpaceOnUse">
      <stop offset="0" stop-color="#e69732"/>
      <stop offset=".13" stop-color="#e19533"/>
      <stop offset=".27" stop-color="#d59037"/>
      <stop offset=".4" stop-color="#c1893f"/>
      <stop offset=".54" stop-color="#a57e49"/>
      <stop offset=".68" stop-color="#807057"/>
      <stop offset=".81" stop-color="#536067"/>
      <stop offset=".95" stop-color="#1f4c7a"/>
      <stop offset="1" stop-color="#094483"/>
    </linearGradient>
    <linearGradient id="Gradiente_sem_nome_3" data-name="Gradiente sem nome 3" x1="9.92" y1="44.26" x2="76.65" y2="44.26" gradientUnits="userSpaceOnUse">
      <stop offset="0" stop-color="#e69732"/>
      <stop offset=".08" stop-color="#c38a3e"/>
      <stop offset=".2" stop-color="#927750"/>
      <stop offset=".33" stop-color="#686760"/>
      <stop offset=".46" stop-color="#455a6c"/>
      <stop offset=".59" stop-color="#2b5076"/>
      <stop offset=".72" stop-color="#18497d"/>
      <stop offset=".86" stop-color="#0c4581"/>
      <stop offset="1" stop-color="#094483"/>
    </linearGradient>
  </defs>
  <g id="Camada_1-2" data-name="Camada 1">
    <g>
      <circle id="Elipse_21" data-name="Elipse 21" class="cls-1" cx="43.5" cy="43.5" r="42.5"/>
      <path class="cls-2" d="M43.28,28.83c-18.43,0-33.36,15.28-33.36,15.28,0,0,14.93,15.59,33.36,15.59s33.36-15.59,33.36-15.59c0,0-14.94-15.28-33.36-15.28ZM48.89,43.57c0,3-2.43,5.42-5.41,5.42s-5.42-2.43-5.42-5.42,2.43-5.41,5.42-5.41c.04,0,.06,0,.1,0,.24,2.82,2.49,5.07,5.31,5.31,0,.04,0,.06,0,.1ZM43.28,55.26c-11.41,0-21.6-6.94-26.71-11.12,4.22-3.39,11.87-8.58,20.82-10.3-3.24,2.02-5.4,5.63-5.4,9.73,0,6.34,5.13,11.48,11.47,11.48s11.48-5.14,11.48-11.48c0-1.09-.15-2.14-.44-3.14.44-.82.7-1.76.7-2.76,0-.82-.17-1.59-.47-2.3,6.51,2.33,11.95,6.11,15.25,8.76-5.1,4.18-15.3,11.12-26.7,11.12Z"/>
    </g>
  </g>
</svg>