<?xml version="1.0" encoding="UTF-8"?>
<svg id="Camada_2" data-name="Camada 2" xmlns="http://www.w3.org/2000/svg" xmlns:xlink="http://www.w3.org/1999/xlink" viewBox="0 0 87 87">
  <defs>
    <style>
      .cls-1 {
        fill: #fff;
        stroke: url(#Gradiente_sem_nome_6);
        stroke-miterlimit: 10;
        stroke-width: 2px;
      }

      .cls-2 {
        fill: url(#Gradiente_sem_nome_3);
        stroke-width: 0px;
      }
    </style>
    <linearGradient id="Gradiente_sem_nome_6" data-name="Gradiente sem nome 6" x1="0" y1="43.5" x2="87" y2="43.5" gradientUnits="userSpaceOnUse">
      <stop offset="0" stop-color="#e69732"/>
      <stop offset=".13" stop-color="#e19533"/>
      <stop offset=".27" stop-color="#d59037"/>
      <stop offset=".4" stop-color="#c1893f"/>
      <stop offset=".54" stop-color="#a57e49"/>
      <stop offset=".68" stop-color="#807057"/>
      <stop offset=".81" stop-color="#536067"/>
      <stop offset=".95" stop-color="#1f4c7a"/>
      <stop offset="1" stop-color="#094483"/>
    </linearGradient>
    <linearGradient id="Gradiente_sem_nome_3" data-name="Gradiente sem nome 3" x1="14.29" y1="43.16" x2="72.97" y2="43.16" gradientUnits="userSpaceOnUse">
      <stop offset="0" stop-color="#e69732"/>
      <stop offset=".08" stop-color="#c38a3e"/>
      <stop offset=".2" stop-color="#927750"/>
      <stop offset=".33" stop-color="#686760"/>
      <stop offset=".46" stop-color="#455a6c"/>
      <stop offset=".59" stop-color="#2b5076"/>
      <stop offset=".72" stop-color="#18497d"/>
      <stop offset=".86" stop-color="#0c4581"/>
      <stop offset="1" stop-color="#094483"/>
    </linearGradient>
  </defs>
  <g id="Camada_1-2" data-name="Camada 1">
    <g>
      <circle id="Elipse_21" data-name="Elipse 21" class="cls-1" cx="43.5" cy="43.5" r="42.5"/>
      <path class="cls-2" d="M71.36,39.83h-1.68c-1.44-4.95-6.02-8.59-11.43-8.59s-9.7,3.4-11.3,8.1c-2.19-.53-4.47-.54-6.66-.02-1.6-4.69-6.05-8.09-11.28-8.09s-10,3.64-11.45,8.59h-1.66c-.89,0-1.62.72-1.62,1.61s.73,1.62,1.62,1.62h1.19v.11c0,6.57,5.34,11.92,11.92,11.92s11.92-5.35,11.92-11.92c0-.1,0-.2,0-.29,1.77-.46,3.64-.44,5.41.04,0,.09,0,.17,0,.26,0,6.57,5.34,11.92,11.92,11.92s11.91-5.35,11.91-11.92v-.11h1.2c.89,0,1.61-.72,1.61-1.62s-.72-1.61-1.61-1.61ZM29.02,51.49c-4.59,0-8.32-3.74-8.32-8.32s3.74-8.32,8.32-8.32,8.32,3.74,8.32,8.32-3.73,8.32-8.32,8.32ZM58.25,51.49c-4.59,0-8.32-3.74-8.32-8.32s3.74-8.32,8.32-8.32,8.32,3.74,8.32,8.32-3.73,8.32-8.32,8.32Z"/>
    </g>
  </g>
</svg>