<?xml version="1.0" encoding="UTF-8"?>
<svg id="Camada_2" data-name="Camada 2" xmlns="http://www.w3.org/2000/svg" xmlns:xlink="http://www.w3.org/1999/xlink" viewBox="0 0 87 87">
  <defs>
    <style>
      .cls-1 {
        fill: #fff;
        stroke: url(#Gradiente_sem_nome_6);
        stroke-miterlimit: 10;
        stroke-width: 2px;
      }

      .cls-2 {
        fill: url(#Gradiente_sem_nome_3);
        stroke-width: 0px;
      }
    </style>
    <linearGradient id="Gradiente_sem_nome_6" data-name="Gradiente sem nome 6" x1="0" y1="43.5" x2="87" y2="43.5" gradientUnits="userSpaceOnUse">
      <stop offset="0" stop-color="#e69732"/>
      <stop offset=".13" stop-color="#e19533"/>
      <stop offset=".27" stop-color="#d59037"/>
      <stop offset=".4" stop-color="#c1893f"/>
      <stop offset=".54" stop-color="#a57e49"/>
      <stop offset=".68" stop-color="#807057"/>
      <stop offset=".81" stop-color="#536067"/>
      <stop offset=".95" stop-color="#1f4c7a"/>
      <stop offset="1" stop-color="#094483"/>
    </linearGradient>
    <linearGradient id="Gradiente_sem_nome_3" data-name="Gradiente sem nome 3" x1="24.16" y1="43.5" x2="62.84" y2="43.5" gradientUnits="userSpaceOnUse">
      <stop offset="0" stop-color="#e69732"/>
      <stop offset=".08" stop-color="#c38a3e"/>
      <stop offset=".2" stop-color="#927750"/>
      <stop offset=".33" stop-color="#686760"/>
      <stop offset=".46" stop-color="#455a6c"/>
      <stop offset=".59" stop-color="#2b5076"/>
      <stop offset=".72" stop-color="#18497d"/>
      <stop offset=".86" stop-color="#0c4581"/>
      <stop offset="1" stop-color="#094483"/>
    </linearGradient>
  </defs>
  <g id="Camada_1-2" data-name="Camada 1">
    <g>
      <circle id="Elipse_21" data-name="Elipse 21" class="cls-1" cx="43.5" cy="43.5" r="42.5"/>
      <path class="cls-2" d="M60.94,29.55l-12.63-8.03c-1.3-.83-2.95-.85-4.27-.07h0c-1.87,1.11-2.43,3.34-1.67,5.12-.38.21-.74.47-1.06.81l-7.14,7.61-1.07-.68c-1.2-.76-2.71-.85-3.99-.22l-2.67,1.31c-2.86,1.4-3.08,5.4-.39,7.11l10.4,6.62-5.7,9.12s-.01.03-.02.04l-1.97,7.67c-.03.13.12.22.22.14l6.24-4.96s.02-.02.03-.04l5.7-9.11,10.42,6.62c2.69,1.71,6.22-.18,6.27-3.37l.05-2.97c.03-1.42-.69-2.76-1.89-3.52l-1.07-.68,3.87-9.7c.17-.42.26-.86.28-1.3,1.94-.07,3.72-1.52,3.93-3.68h0c.15-1.53-.58-3.01-1.87-3.84ZM46.02,30.34l-6.15,7.39c-.54.65-1.5.73-2.14.2-.65-.54-.73-1.5-.2-2.14l6.15-7.39c.54-.65,1.5-.73,2.14-.2.65.54.73,1.5.2,2.14Z"/>
    </g>
  </g>
</svg>