<?xml version="1.0" encoding="UTF-8"?>
<svg id="Camada_2" data-name="Camada 2" xmlns="http://www.w3.org/2000/svg" xmlns:xlink="http://www.w3.org/1999/xlink" viewBox="0 0 87 87">
  <defs>
    <style>
      .cls-1 {
        fill: #fff;
        stroke: url(#Gradiente_sem_nome_6);
        stroke-miterlimit: 10;
        stroke-width: 2px;
      }

      .cls-2 {
        fill: url(#Gradiente_sem_nome_3);
        stroke-width: 0px;
      }
    </style>
    <linearGradient id="Gradiente_sem_nome_6" data-name="Gradiente sem nome 6" x1="0" y1="43.5" x2="87" y2="43.5" gradientUnits="userSpaceOnUse">
      <stop offset="0" stop-color="#e69732"/>
      <stop offset=".13" stop-color="#e19533"/>
      <stop offset=".27" stop-color="#d59037"/>
      <stop offset=".4" stop-color="#c1893f"/>
      <stop offset=".54" stop-color="#a57e49"/>
      <stop offset=".68" stop-color="#807057"/>
      <stop offset=".81" stop-color="#536067"/>
      <stop offset=".95" stop-color="#1f4c7a"/>
      <stop offset="1" stop-color="#094483"/>
    </linearGradient>
    <linearGradient id="Gradiente_sem_nome_3" data-name="Gradiente sem nome 3" x1="20.46" y1="43.5" x2="66.75" y2="43.5" gradientUnits="userSpaceOnUse">
      <stop offset="0" stop-color="#e69732"/>
      <stop offset=".08" stop-color="#c38a3e"/>
      <stop offset=".2" stop-color="#927750"/>
      <stop offset=".33" stop-color="#686760"/>
      <stop offset=".46" stop-color="#455a6c"/>
      <stop offset=".59" stop-color="#2b5076"/>
      <stop offset=".72" stop-color="#18497d"/>
      <stop offset=".86" stop-color="#0c4581"/>
      <stop offset="1" stop-color="#094483"/>
    </linearGradient>
  </defs>
  <g id="Camada_1-2" data-name="Camada 1">
    <g>
      <circle id="Elipse_21" data-name="Elipse 21" class="cls-1" cx="43.5" cy="43.5" r="42.5"/>
      <path id="Grupo_385" data-name="Grupo 385" class="cls-2" d="M49.2,55.45c-9.68,0-17.55-7.87-17.55-17.55s7.87-17.55,17.55-17.55,17.55,7.87,17.55,17.55-7.87,17.55-17.55,17.55ZM49.2,25.12c-7.05,0-12.79,5.74-12.79,12.79s5.74,12.79,12.79,12.79,12.79-5.74,12.79-12.79-5.74-12.79-12.79-12.79ZM33.45,48.94l-12.02,12.02c-1.3,1.3-1.3,3.41,0,4.71h0c1.3,1.3,3.41,1.3,4.71,0l12.02-12.02h0l-4.71-4.71h0ZM60.72,38.7c0-6.79-5.53-12.32-12.32-12.32-.88,0-1.59.71-1.59,1.59s.71,1.59,1.59,1.59c5.04,0,9.14,4.1,9.14,9.14,0,.88.71,1.59,1.59,1.59s1.59-.71,1.59-1.59Z"/>
    </g>
  </g>
</svg>