<?xml version="1.0" encoding="UTF-8"?>
<svg id="Camada_2" data-name="Camada 2" xmlns="http://www.w3.org/2000/svg" xmlns:xlink="http://www.w3.org/1999/xlink" viewBox="0 0 87 87">
  <defs>
    <style>
      .cls-1 {
        fill: #fff;
        stroke: url(#Gradiente_sem_nome_6);
        stroke-miterlimit: 10;
        stroke-width: 2px;
      }

      .cls-2 {
        fill: url(#Gradiente_sem_nome_3);
      }

      .cls-2, .cls-3 {
        stroke-width: 0px;
      }

      .cls-3 {
        fill: url(#Gradiente_sem_nome_3-2);
      }
    </style>
    <linearGradient id="Gradiente_sem_nome_6" data-name="Gradiente sem nome 6" x1="0" y1="43.5" x2="87" y2="43.5" gradientUnits="userSpaceOnUse">
      <stop offset="0" stop-color="#e69732"/>
      <stop offset=".13" stop-color="#e19533"/>
      <stop offset=".27" stop-color="#d59037"/>
      <stop offset=".4" stop-color="#c1893f"/>
      <stop offset=".54" stop-color="#a57e49"/>
      <stop offset=".68" stop-color="#807057"/>
      <stop offset=".81" stop-color="#536067"/>
      <stop offset=".95" stop-color="#1f4c7a"/>
      <stop offset="1" stop-color="#094483"/>
    </linearGradient>
    <linearGradient id="Gradiente_sem_nome_3" data-name="Gradiente sem nome 3" x1="20.09" y1="55.69" x2="66.48" y2="55.69" gradientUnits="userSpaceOnUse">
      <stop offset="0" stop-color="#e69732"/>
      <stop offset=".08" stop-color="#c38a3e"/>
      <stop offset=".2" stop-color="#927750"/>
      <stop offset=".33" stop-color="#686760"/>
      <stop offset=".46" stop-color="#455a6c"/>
      <stop offset=".59" stop-color="#2b5076"/>
      <stop offset=".72" stop-color="#18497d"/>
      <stop offset=".86" stop-color="#0c4581"/>
      <stop offset="1" stop-color="#094483"/>
    </linearGradient>
    <linearGradient id="Gradiente_sem_nome_3-2" data-name="Gradiente sem nome 3" x1="32.56" y1="39.33" x2="54.01" y2="39.33" xlink:href="#Gradiente_sem_nome_3"/>
  </defs>
  <g id="Camada_1-2" data-name="Camada 1">
    <g>
      <circle id="Elipse_21" data-name="Elipse 21" class="cls-1" cx="43.5" cy="43.5" r="42.5"/>
      <g id="download-2">
        <g id="Caminho_404" data-name="Caminho 404">
          <path class="cls-2" d="M66.48,50.14v6.93c0,3.62-2.94,6.56-6.56,6.56H26.65c-3.62,0-6.56-2.95-6.56-6.56v-6.93c0-1.33,1.08-2.4,2.4-2.4s2.4,1.08,2.4,2.4v6.93c0,.97.79,1.75,1.75,1.75h33.27c.97,0,1.75-.79,1.75-1.75v-6.93c0-1.33,1.08-2.4,2.4-2.4s2.4,1.08,2.4,2.4Z"/>
        </g>
        <g id="Caminho_405" data-name="Caminho 405">
          <path class="cls-3" d="M53.3,46.57l-8.43,8.42c-.47.4-1.04.6-1.6.6-.62,0-1.22-.24-1.69-.7l-8.31-8.32c-.95-.96-.94-2.49,0-3.41.95-.93,2.47-.93,3.4.02l4.21,4.21v-21.92c0-1.33,1.08-2.4,2.4-2.4s2.4,1.08,2.4,2.4v21.92l4.21-4.22c.94-.93,2.47-.93,3.4,0,.94.94.93,2.47,0,3.4Z"/>
        </g>
      </g>
    </g>
  </g>
</svg>