<?xml version="1.0" encoding="UTF-8"?>
<svg id="Camada_2" data-name="Camada 2" xmlns="http://www.w3.org/2000/svg" xmlns:xlink="http://www.w3.org/1999/xlink" viewBox="0 0 87 87">
  <defs>
    <style>
      .cls-1 {
        fill: #fff;
        stroke: url(#Gradiente_sem_nome_6);
        stroke-miterlimit: 10;
        stroke-width: 2px;
      }

      .cls-2 {
        fill: url(#Gradiente_sem_nome_11);
        stroke-width: 0px;
      }
    </style>
    <linearGradient id="Gradiente_sem_nome_6" data-name="Gradiente sem nome 6" x1="0" y1="43.5" x2="87" y2="43.5" gradientUnits="userSpaceOnUse">
      <stop offset="0" stop-color="#e69732"/>
      <stop offset=".13" stop-color="#e19533"/>
      <stop offset=".27" stop-color="#d59037"/>
      <stop offset=".4" stop-color="#c1893f"/>
      <stop offset=".54" stop-color="#a57e49"/>
      <stop offset=".68" stop-color="#807057"/>
      <stop offset=".81" stop-color="#536067"/>
      <stop offset=".95" stop-color="#1f4c7a"/>
      <stop offset="1" stop-color="#094483"/>
    </linearGradient>
    <linearGradient id="Gradiente_sem_nome_11" data-name="Gradiente sem nome 11" x1="38.01" y1="43.72" x2="49.37" y2="43.72" gradientUnits="userSpaceOnUse">
      <stop offset="0" stop-color="#e69732"/>
      <stop offset=".08" stop-color="#c38a3e"/>
      <stop offset=".2" stop-color="#927750"/>
      <stop offset=".33" stop-color="#686760"/>
      <stop offset=".46" stop-color="#455a6c"/>
      <stop offset=".59" stop-color="#2b5076"/>
      <stop offset=".72" stop-color="#18497d"/>
      <stop offset=".86" stop-color="#0c4581"/>
      <stop offset="1" stop-color="#094483"/>
    </linearGradient>
  </defs>
  <g id="Camada_1-2" data-name="Camada 1">
    <g>
      <circle id="Elipse_21" data-name="Elipse 21" class="cls-1" cx="43.5" cy="43.5" r="42.5"/>
      <path id="Caminho_27" data-name="Caminho 27" class="cls-2" d="M43.69,19.04h0c3.2,0,5.76,2.64,5.68,5.83l-1.75,29.39c-.05.9-.79,1.59-1.69,1.59h-4.47c-.9,0-1.64-.7-1.69-1.59l-1.75-29.39c-.09-3.2,2.48-5.83,5.68-5.83ZM48.6,63.4c0,2.76-2.24,5-5,5s-5-2.24-5-5,2.24-5,5-5,5,2.24,5,5Z"/>
    </g>
  </g>
</svg>