<?xml version="1.0" encoding="UTF-8"?>
<svg id="Camada_2" data-name="Camada 2" xmlns="http://www.w3.org/2000/svg" xmlns:xlink="http://www.w3.org/1999/xlink" viewBox="0 0 41 41">
  <defs>
    <style>
      .cls-1 {
        fill: url(#Gradiente_sem_nome_3);
        stroke-width: 0px;
      }

      .cls-2 {
        fill: #fff;
        stroke: url(#Gradiente_sem_nome_6);
        stroke-miterlimit: 10;
      }
    </style>
    <linearGradient id="Gradiente_sem_nome_6" data-name="Gradiente sem nome 6" x1="0" y1="20.5" x2="41" y2="20.5" gradientUnits="userSpaceOnUse">
      <stop offset="0" stop-color="#e69732"/>
      <stop offset=".13" stop-color="#e19533"/>
      <stop offset=".27" stop-color="#d59037"/>
      <stop offset=".4" stop-color="#c1893f"/>
      <stop offset=".54" stop-color="#a57e49"/>
      <stop offset=".68" stop-color="#807057"/>
      <stop offset=".81" stop-color="#536067"/>
      <stop offset=".95" stop-color="#1f4c7a"/>
      <stop offset="1" stop-color="#094483"/>
    </linearGradient>
    <linearGradient id="Gradiente_sem_nome_3" data-name="Gradiente sem nome 3" x1="3.88" y1="20.5" x2="37.12" y2="20.5" gradientUnits="userSpaceOnUse">
      <stop offset="0" stop-color="#e69732"/>
      <stop offset=".08" stop-color="#c38a3e"/>
      <stop offset=".2" stop-color="#927750"/>
      <stop offset=".33" stop-color="#686760"/>
      <stop offset=".46" stop-color="#455a6c"/>
      <stop offset=".59" stop-color="#2b5076"/>
      <stop offset=".72" stop-color="#18497d"/>
      <stop offset=".86" stop-color="#0c4581"/>
      <stop offset="1" stop-color="#094483"/>
    </linearGradient>
  </defs>
  <g id="Camada_1-2" data-name="Camada 1">
    <g>
      <circle id="Elipse_21" data-name="Elipse 21" class="cls-2" cx="20.5" cy="20.5" r="20"/>
      <path class="cls-1" d="M20.5,11.14c5.17,0,9.36,4.19,9.36,9.36s-4.19,9.36-9.36,9.36-9.36-4.19-9.36-9.36,4.19-9.36,9.36-9.36ZM21.64,32.35v3.67c0,.61-.49,1.1-1.1,1.1h-.09c-.61,0-1.1-.49-1.1-1.1v-3.67c0-.61.49-1.1,1.1-1.1h.09c.61,0,1.1.49,1.1,1.1ZM12.93,29.69l-2.59,2.59c-.43.43-1.13.43-1.56,0l-.06-.06c-.43-.43-.43-1.13,0-1.56l2.59-2.59c.43-.43,1.13-.43,1.56,0l.06.06c.43.43.43,1.13,0,1.56ZM8.65,21.64h-3.67c-.61,0-1.1-.49-1.1-1.1v-.09c0-.61.49-1.1,1.1-1.1h3.67c.61,0,1.1.49,1.1,1.1v.09c0,.61-.49,1.1-1.1,1.1ZM11.31,12.93l-2.59-2.59c-.43-.43-.43-1.13,0-1.56l.06-.06c.43-.43,1.13-.43,1.56,0l2.59,2.59c.43.43.43,1.13,0,1.56l-.06.06c-.43.43-1.13.43-1.56,0ZM19.36,8.65v-3.67c0-.61.49-1.1,1.1-1.1h.09c.61,0,1.1.49,1.1,1.1v3.67c0,.61-.49,1.1-1.1,1.1h-.09c-.61,0-1.1-.49-1.1-1.1ZM28.07,11.31l2.59-2.59c.43-.43,1.13-.43,1.56,0l.06.06c.43.43.43,1.13,0,1.56l-2.59,2.59c-.43.43-1.13.43-1.56,0l-.06-.06c-.43-.43-.43-1.13,0-1.56ZM32.35,19.36h3.67c.61,0,1.1.49,1.1,1.1v.09c0,.61-.49,1.1-1.1,1.1h-3.67c-.61,0-1.1-.49-1.1-1.1v-.09c0-.61.49-1.1,1.1-1.1ZM29.69,28.07l2.59,2.59c.43.43.43,1.13,0,1.56l-.06.06c-.43.43-1.13.43-1.56,0l-2.59-2.59c-.43-.43-.43-1.13,0-1.56l.06-.06c.43-.43,1.13-.43,1.56,0Z"/>
    </g>
  </g>
</svg>